<svg width="375" height="812" viewBox="0 0 375 812" fill="none" xmlns="http://www.w3.org/2000/svg">
<g clip-path="url(#clip0)">
<rect width="375" height="812" fill="white"/>
<rect x="150.309" y="226.492" width="232.662" height="252.351" transform="rotate(-7.28239 150.309 226.492)" fill="#646464"/>
<rect x="57" y="282.147" width="232.662" height="252.351" transform="rotate(-7.28239 57 282.147)" fill="#C8C8C8"/>
<rect x="-21" y="370.533" width="232.662" height="252.351" transform="rotate(-7.28239 -21 370.533)" fill="#EBEBEB"/>
<circle cx="144.477" cy="113.906" r="1.42801" transform="rotate(-145.546 144.477 113.906)" fill="#646464"/>
<circle cx="173.561" cy="71.5158" r="1.42801" transform="rotate(-145.546 173.561 71.5158)" fill="#646464"/>
<circle cx="78.5364" cy="68.6651" r="1.42801" transform="rotate(-145.546 78.5364 68.6651)" fill="#646464"/>
<circle cx="107.62" cy="26.2747" r="1.42801" transform="rotate(-145.546 107.62 26.2747)" fill="#646464"/>
<circle cx="159.019" cy="92.711" r="1.42801" transform="rotate(-145.546 159.019 92.711)" fill="#646464"/>
<circle cx="188.102" cy="50.3205" r="1.42801" transform="rotate(-145.546 188.102 50.3205)" fill="#646464"/>
<circle cx="93.0782" cy="47.4699" r="1.42801" transform="rotate(-145.546 93.0782 47.4699)" fill="#646464"/>
<circle cx="122.162" cy="5.07955" r="1.42801" transform="rotate(-145.546 122.162 5.07955)" fill="#646464"/>
<circle cx="151.748" cy="103.309" r="1.42801" transform="rotate(-145.546 151.748 103.309)" fill="#646464"/>
<circle cx="180.832" cy="60.9182" r="1.42801" transform="rotate(-145.546 180.832 60.9182)" fill="#646464"/>
<circle cx="85.8073" cy="58.0676" r="1.42801" transform="rotate(-145.546 85.8073 58.0676)" fill="#646464"/>
<circle cx="114.891" cy="15.6771" r="1.42801" transform="rotate(-145.546 114.891 15.6771)" fill="#646464"/>
<circle cx="166.29" cy="82.1134" r="1.42801" transform="rotate(-145.546 166.29 82.1134)" fill="#646464"/>
<circle cx="195.373" cy="39.723" r="1.42801" transform="rotate(-145.546 195.373 39.723)" fill="#646464"/>
<circle cx="100.349" cy="36.8724" r="1.42801" transform="rotate(-145.546 100.349 36.8724)" fill="#646464"/>
<circle cx="111.507" cy="91.2857" r="1.42801" transform="rotate(-145.546 111.507 91.2857)" fill="#646464"/>
<circle cx="140.59" cy="48.8952" r="1.42801" transform="rotate(-145.546 140.59 48.8952)" fill="#646464"/>
<circle cx="45.5661" cy="46.0446" r="1.42801" transform="rotate(-145.546 45.5661 46.0446)" fill="#646464"/>
<circle cx="74.6496" cy="3.65426" r="1.42801" transform="rotate(-145.546 74.6496 3.65426)" fill="#646464"/>
<circle cx="126.049" cy="70.0904" r="1.42801" transform="rotate(-145.546 126.049 70.0904)" fill="#646464"/>
<circle cx="155.132" cy="27.7" r="1.42801" transform="rotate(-145.546 155.132 27.7)" fill="#646464"/>
<circle cx="60.1079" cy="24.8495" r="1.42801" transform="rotate(-145.546 60.1079 24.8495)" fill="#646464"/>
<circle cx="118.778" cy="80.6881" r="1.42801" transform="rotate(-145.546 118.778 80.6881)" fill="#646464"/>
<circle cx="147.861" cy="38.2977" r="1.42801" transform="rotate(-145.546 147.861 38.2977)" fill="#646464"/>
<circle cx="52.837" cy="35.447" r="1.42801" transform="rotate(-145.546 52.837 35.447)" fill="#646464"/>
<circle cx="133.319" cy="59.4929" r="1.42801" transform="rotate(-145.546 133.319 59.4929)" fill="#646464"/>
<circle cx="162.403" cy="17.1024" r="1.42801" transform="rotate(-145.546 162.403 17.1024)" fill="#646464"/>
<circle cx="67.3787" cy="14.2518" r="1.42801" transform="rotate(-145.546 67.3787 14.2518)" fill="#646464"/>
<circle cx="127.992" cy="102.596" r="1.42801" transform="rotate(-145.546 127.992 102.596)" fill="#646464"/>
<circle cx="157.075" cy="60.2055" r="1.42801" transform="rotate(-145.546 157.075 60.2055)" fill="#646464"/>
<circle cx="62.0513" cy="57.3549" r="1.42801" transform="rotate(-145.546 62.0513 57.3549)" fill="#646464"/>
<circle cx="91.1348" cy="14.9644" r="1.42801" transform="rotate(-145.546 91.1348 14.9644)" fill="#646464"/>
<circle cx="142.534" cy="81.4007" r="1.42801" transform="rotate(-145.546 142.534 81.4007)" fill="#646464"/>
<circle cx="171.617" cy="39.0103" r="1.42801" transform="rotate(-145.546 171.617 39.0103)" fill="#646464"/>
<circle cx="76.593" cy="36.1596" r="1.42801" transform="rotate(-145.546 76.593 36.1596)" fill="#646464"/>
<circle cx="135.263" cy="91.9984" r="1.42801" transform="rotate(-145.546 135.263 91.9984)" fill="#646464"/>
<circle cx="164.346" cy="49.6079" r="1.42801" transform="rotate(-145.546 164.346 49.6079)" fill="#646464"/>
<circle cx="69.3221" cy="46.7573" r="1.42801" transform="rotate(-145.546 69.3221 46.7573)" fill="#646464"/>
<circle cx="98.4057" cy="4.36691" r="1.42801" transform="rotate(-145.546 98.4057 4.36691)" fill="#646464"/>
<circle cx="149.805" cy="70.8031" r="1.42801" transform="rotate(-145.546 149.805 70.8031)" fill="#646464"/>
<circle cx="178.888" cy="28.4127" r="1.42801" transform="rotate(-145.546 178.888 28.4127)" fill="#646464"/>
<circle cx="83.8639" cy="25.5621" r="1.42801" transform="rotate(-145.546 83.8639 25.5621)" fill="#646464"/>
<circle cx="95.0216" cy="79.9754" r="1.42801" transform="rotate(-145.546 95.0216 79.9754)" fill="#646464"/>
<circle cx="124.105" cy="37.585" r="1.42801" transform="rotate(-145.546 124.105 37.585)" fill="#646464"/>
<circle cx="29.0809" cy="34.7343" r="1.42801" transform="rotate(-145.546 29.0809 34.7343)" fill="#646464"/>
<circle cx="109.563" cy="58.7802" r="1.42801" transform="rotate(-145.546 109.563 58.7802)" fill="#646464"/>
<circle cx="138.647" cy="16.3897" r="1.42801" transform="rotate(-145.546 138.647 16.3897)" fill="#646464"/>
<circle cx="43.6227" cy="13.5391" r="1.42801" transform="rotate(-145.546 43.6227 13.5391)" fill="#646464"/>
<circle cx="102.292" cy="69.3778" r="1.42801" transform="rotate(-145.546 102.292 69.3778)" fill="#646464"/>
<circle cx="131.376" cy="26.9874" r="1.42801" transform="rotate(-145.546 131.376 26.9874)" fill="#646464"/>
<circle cx="36.3518" cy="24.1368" r="1.42801" transform="rotate(-145.546 36.3518 24.1368)" fill="#646464"/>
<circle cx="116.834" cy="48.1826" r="1.42801" transform="rotate(-145.546 116.834 48.1826)" fill="#646464"/>
<circle cx="145.918" cy="5.7922" r="1.42801" transform="rotate(-145.546 145.918 5.7922)" fill="#646464"/>
<circle cx="50.8936" cy="2.94161" r="1.42801" transform="rotate(-145.546 50.8936 2.94161)" fill="#646464"/>
<circle cx="20.8816" cy="44.9178" r="1.42801" transform="rotate(34.4535 20.8816 44.9178)" fill="#646464"/>
<circle cx="86.8222" cy="90.1589" r="1.42801" transform="rotate(34.4535 86.8222 90.1589)" fill="#646464"/>
<circle cx="6.33979" cy="66.113" r="1.42801" transform="rotate(34.4535 6.33979 66.113)" fill="#646464"/>
<circle cx="72.2805" cy="111.354" r="1.42801" transform="rotate(34.4535 72.2805 111.354)" fill="#646464"/>
<circle cx="13.6107" cy="55.5154" r="1.42801" transform="rotate(34.4535 13.6107 55.5154)" fill="#646464"/>
<circle cx="79.5514" cy="100.756" r="1.42801" transform="rotate(34.4535 79.5514 100.756)" fill="#646464"/>
<circle cx="-0.931087" cy="76.7106" r="1.42801" transform="rotate(34.4535 -0.931087 76.7106)" fill="#646464"/>
<circle cx="65.0096" cy="121.952" r="1.42801" transform="rotate(34.4535 65.0096 121.952)" fill="#646464"/>
<circle cx="35.9261" cy="164.342" r="1.42801" transform="rotate(34.4535 35.9261 164.342)" fill="#646464"/>
<circle cx="53.8519" cy="67.5382" r="1.42801" transform="rotate(34.4535 53.8519 67.5382)" fill="#646464"/>
<circle cx="24.7684" cy="109.929" r="1.42801" transform="rotate(34.4535 24.7684 109.929)" fill="#646464"/>
<circle cx="119.793" cy="112.779" r="1.42801" transform="rotate(34.4535 119.793 112.779)" fill="#646464"/>
<circle cx="39.3101" cy="88.7336" r="1.42801" transform="rotate(34.4535 39.3101 88.7336)" fill="#646464"/>
<circle cx="10.2266" cy="131.124" r="1.42801" transform="rotate(34.4535 10.2266 131.124)" fill="#646464"/>
<circle cx="46.581" cy="78.1359" r="1.42801" transform="rotate(34.4535 46.581 78.1359)" fill="#646464"/>
<circle cx="17.4975" cy="120.526" r="1.42801" transform="rotate(34.4535 17.4975 120.526)" fill="#646464"/>
<circle cx="112.522" cy="123.377" r="1.42801" transform="rotate(34.4535 112.522 123.377)" fill="#646464"/>
<circle cx="32.0393" cy="99.3311" r="1.42801" transform="rotate(34.4535 32.0393 99.3311)" fill="#646464"/>
<circle cx="2.95573" cy="141.722" r="1.42801" transform="rotate(34.4535 2.95573 141.722)" fill="#646464"/>
<circle cx="37.3667" cy="56.2281" r="1.42801" transform="rotate(34.4535 37.3667 56.2281)" fill="#646464"/>
<circle cx="8.2832" cy="98.6184" r="1.42801" transform="rotate(34.4535 8.2832 98.6184)" fill="#646464"/>
<circle cx="103.307" cy="101.469" r="1.42801" transform="rotate(34.4535 103.307 101.469)" fill="#646464"/>
<circle cx="22.825" cy="77.4233" r="1.42801" transform="rotate(34.4535 22.825 77.4233)" fill="#646464"/>
<circle cx="88.7657" cy="122.664" r="1.42801" transform="rotate(34.4535 88.7657 122.664)" fill="#646464"/>
<circle cx="30.0958" cy="66.8256" r="1.42801" transform="rotate(34.4535 30.0958 66.8256)" fill="#646464"/>
<circle cx="1.01233" cy="109.216" r="1.42801" transform="rotate(34.4535 1.01233 109.216)" fill="#646464"/>
<circle cx="96.0365" cy="112.067" r="1.42801" transform="rotate(34.4535 96.0365 112.067)" fill="#646464"/>
<circle cx="15.5541" cy="88.0209" r="1.42801" transform="rotate(34.4535 15.5541 88.0209)" fill="#646464"/>
<circle cx="70.3371" cy="78.8485" r="1.42801" transform="rotate(34.4535 70.3371 78.8485)" fill="#646464"/>
<circle cx="41.2535" cy="121.239" r="1.42801" transform="rotate(34.4535 41.2535 121.239)" fill="#646464"/>
<circle cx="136.278" cy="124.09" r="1.42801" transform="rotate(34.4535 136.278 124.09)" fill="#646464"/>
<circle cx="55.7953" cy="100.044" r="1.42801" transform="rotate(34.4535 55.7953 100.044)" fill="#646464"/>
<circle cx="63.0662" cy="89.4462" r="1.42801" transform="rotate(34.4535 63.0662 89.4462)" fill="#646464"/>
<circle cx="48.5244" cy="110.641" r="1.42801" transform="rotate(34.4535 48.5244 110.641)" fill="#646464"/>
<circle cx="19.4409" cy="153.032" r="1.42801" transform="rotate(34.4535 19.4409 153.032)" fill="#646464"/>
<circle cx="146" cy="-15" r="45" fill="#646464"/>
<path d="M229 37L229 -5.06639e-07" stroke="black" stroke-width="5"/>
</g>
<defs>
<clipPath id="clip0">
<rect width="375" height="812" fill="white"/>
</clipPath>
</defs>
</svg>
