<svg width="375" height="812" viewBox="0 0 375 812" fill="none" xmlns="http://www.w3.org/2000/svg">
<g clip-path="url(#clip0)">
<rect width="375" height="812" fill="#EBEBEB"/>
<rect x="155.63" y="80" width="628.485" height="470" transform="rotate(21.2872 155.63 80)" fill="#323232"/>
<circle cx="-15" cy="70" r="45" fill="#646464"/>
<circle cx="71.8005" cy="39" r="1" fill="#646464"/>
<circle cx="71.8005" cy="75" r="1" fill="#646464"/>
<circle cx="127.801" cy="39" r="1" fill="#646464"/>
<circle cx="127.801" cy="75" r="1" fill="#646464"/>
<circle cx="71.8005" cy="57" r="1" fill="#646464"/>
<circle cx="71.8005" cy="93" r="1" fill="#646464"/>
<circle cx="127.801" cy="57" r="1" fill="#646464"/>
<circle cx="127.801" cy="93" r="1" fill="#646464"/>
<circle cx="71.8005" cy="48" r="1" fill="#646464"/>
<circle cx="71.8005" cy="84" r="1" fill="#646464"/>
<circle cx="127.801" cy="48" r="1" fill="#646464"/>
<circle cx="127.801" cy="84" r="1" fill="#646464"/>
<circle cx="71.8005" cy="66" r="1" fill="#646464"/>
<circle cx="71.8005" cy="102" r="1" fill="#646464"/>
<circle cx="127.801" cy="66" r="1" fill="#646464"/>
<circle cx="127.801" cy="102" r="1" fill="#646464"/>
<circle cx="99.8005" cy="39" r="1" fill="#646464"/>
<circle cx="99.8005" cy="75" r="1" fill="#646464"/>
<circle cx="155.801" cy="39" r="1" fill="#646464"/>
<circle cx="155.801" cy="75" r="1" fill="#646464"/>
<circle cx="99.8005" cy="57" r="1" fill="#646464"/>
<circle cx="99.8005" cy="93" r="1" fill="#646464"/>
<circle cx="155.801" cy="57" r="1" fill="#646464"/>
<circle cx="99.8005" cy="48" r="1" fill="#646464"/>
<circle cx="99.8005" cy="84" r="1" fill="#646464"/>
<circle cx="155.801" cy="48" r="1" fill="#646464"/>
<circle cx="99.8005" cy="66" r="1" fill="#646464"/>
<circle cx="99.8005" cy="102" r="1" fill="#646464"/>
<circle cx="155.801" cy="66" r="1" fill="#646464"/>
<circle cx="85.8005" cy="39" r="1" fill="#646464"/>
<circle cx="85.8005" cy="75" r="1" fill="#646464"/>
<circle cx="141.801" cy="39" r="1" fill="#646464"/>
<circle cx="141.801" cy="75" r="1" fill="#646464"/>
<circle cx="85.8005" cy="57" r="1" fill="#646464"/>
<circle cx="85.8005" cy="93" r="1" fill="#646464"/>
<circle cx="141.801" cy="57" r="1" fill="#646464"/>
<circle cx="141.801" cy="93" r="1" fill="#646464"/>
<circle cx="85.8005" cy="48" r="1" fill="#646464"/>
<circle cx="85.8005" cy="84" r="1" fill="#646464"/>
<circle cx="141.801" cy="48" r="1" fill="#646464"/>
<circle cx="141.801" cy="84" r="1" fill="#646464"/>
<circle cx="85.8005" cy="66" r="1" fill="#646464"/>
<circle cx="85.8005" cy="102" r="1" fill="#646464"/>
<circle cx="141.801" cy="66" r="1" fill="#646464"/>
<circle cx="141.801" cy="102" r="1" fill="#646464"/>
<circle cx="113.801" cy="39" r="1" fill="#646464"/>
<circle cx="113.801" cy="75" r="1" fill="#646464"/>
<circle cx="169.801" cy="39" r="1" fill="#646464"/>
<circle cx="169.801" cy="75" r="1" fill="#646464"/>
<circle cx="113.801" cy="57" r="1" fill="#646464"/>
<circle cx="113.801" cy="93" r="1" fill="#646464"/>
<circle cx="169.801" cy="57" r="1" fill="#646464"/>
<circle cx="113.801" cy="48" r="1" fill="#646464"/>
<circle cx="113.801" cy="84" r="1" fill="#646464"/>
<circle cx="169.801" cy="48" r="1" fill="#646464"/>
<circle cx="113.801" cy="66" r="1" fill="#646464"/>
<circle cx="113.801" cy="102" r="1" fill="#646464"/>
<circle cx="169.801" cy="66" r="1" fill="#646464"/>
<path d="M228 37L228 -5.06639e-07" stroke="black" stroke-width="5"/>
<path d="M213 23L213 -14" stroke="black" stroke-width="5"/>
<path d="M196 13L196 -24" stroke="black" stroke-width="5"/>
</g>
<defs>
<clipPath id="clip0">
<rect width="375" height="812" fill="white"/>
</clipPath>
</defs>
</svg>
