<svg width="375" height="812" viewBox="0 0 375 812" fill="none" xmlns="http://www.w3.org/2000/svg">
<g clip-path="url(#clip0)">
<rect width="375" height="812" fill="#EBEBEB"/>
<rect x="-254" y="185.045" width="423.814" height="470" transform="rotate(-41.3588 -254 185.045)" fill="#323232"/>
<circle cx="-15" cy="630" r="45" fill="#646464"/>
<circle cx="10.428" cy="6.42801" r="1.42801" fill="#646464"/>
<circle cx="10.428" cy="57.8362" r="1.42801" fill="#646464"/>
<circle cx="90.3963" cy="6.42801" r="1.42801" fill="#646464"/>
<circle cx="90.3963" cy="57.8362" r="1.42801" fill="#646464"/>
<circle cx="10.428" cy="32.1321" r="1.42801" fill="#646464"/>
<circle cx="10.428" cy="83.5403" r="1.42801" fill="#646464"/>
<circle cx="90.3963" cy="32.1321" r="1.42801" fill="#646464"/>
<circle cx="90.3963" cy="83.5403" r="1.42801" fill="#646464"/>
<circle cx="10.428" cy="19.2801" r="1.42801" fill="#646464"/>
<circle cx="10.428" cy="70.6883" r="1.42801" fill="#646464"/>
<circle cx="90.3963" cy="19.2801" r="1.42801" fill="#646464"/>
<circle cx="90.3963" cy="70.6883" r="1.42801" fill="#646464"/>
<circle cx="10.428" cy="44.9842" r="1.42801" fill="#646464"/>
<circle cx="10.428" cy="96.3924" r="1.42801" fill="#646464"/>
<circle cx="90.3963" cy="44.9842" r="1.42801" fill="#646464"/>
<circle cx="90.3963" cy="96.3924" r="1.42801" fill="#646464"/>
<circle cx="50.4121" cy="6.42801" r="1.42801" fill="#646464"/>
<circle cx="50.4121" cy="57.8362" r="1.42801" fill="#646464"/>
<circle cx="130.38" cy="6.42801" r="1.42801" fill="#646464"/>
<circle cx="130.38" cy="57.8362" r="1.42801" fill="#646464"/>
<circle cx="50.4121" cy="32.1321" r="1.42801" fill="#646464"/>
<circle cx="50.4121" cy="83.5403" r="1.42801" fill="#646464"/>
<circle cx="130.38" cy="32.1321" r="1.42801" fill="#646464"/>
<circle cx="50.4121" cy="19.2801" r="1.42801" fill="#646464"/>
<circle cx="50.4121" cy="70.6883" r="1.42801" fill="#646464"/>
<circle cx="130.38" cy="19.2801" r="1.42801" fill="#646464"/>
<circle cx="50.4121" cy="44.9842" r="1.42801" fill="#646464"/>
<circle cx="50.4121" cy="96.3924" r="1.42801" fill="#646464"/>
<circle cx="130.38" cy="44.9842" r="1.42801" fill="#646464"/>
<circle cx="30.4201" cy="6.42801" r="1.42801" fill="#646464"/>
<circle cx="30.4201" cy="57.8362" r="1.42801" fill="#646464"/>
<circle cx="110.388" cy="6.42801" r="1.42801" fill="#646464"/>
<circle cx="110.388" cy="57.8362" r="1.42801" fill="#646464"/>
<circle cx="30.4201" cy="32.1321" r="1.42801" fill="#646464"/>
<circle cx="30.4201" cy="83.5403" r="1.42801" fill="#646464"/>
<circle cx="110.388" cy="32.1321" r="1.42801" fill="#646464"/>
<circle cx="110.388" cy="83.5403" r="1.42801" fill="#646464"/>
<circle cx="30.4201" cy="19.2801" r="1.42801" fill="#646464"/>
<circle cx="30.4201" cy="70.6883" r="1.42801" fill="#646464"/>
<circle cx="110.388" cy="19.2801" r="1.42801" fill="#646464"/>
<circle cx="110.388" cy="70.6883" r="1.42801" fill="#646464"/>
<circle cx="30.4201" cy="44.9842" r="1.42801" fill="#646464"/>
<circle cx="30.4201" cy="96.3924" r="1.42801" fill="#646464"/>
<circle cx="110.388" cy="44.9842" r="1.42801" fill="#646464"/>
<circle cx="110.388" cy="96.3924" r="1.42801" fill="#646464"/>
<circle cx="70.4042" cy="6.42801" r="1.42801" fill="#646464"/>
<circle cx="70.4042" cy="57.8362" r="1.42801" fill="#646464"/>
<circle cx="150.373" cy="6.42801" r="1.42801" fill="#646464"/>
<circle cx="150.373" cy="57.8362" r="1.42801" fill="#646464"/>
<circle cx="70.4042" cy="32.1321" r="1.42801" fill="#646464"/>
<circle cx="70.4042" cy="83.5403" r="1.42801" fill="#646464"/>
<circle cx="150.373" cy="32.1321" r="1.42801" fill="#646464"/>
<circle cx="70.4042" cy="19.2801" r="1.42801" fill="#646464"/>
<circle cx="70.4042" cy="70.6883" r="1.42801" fill="#646464"/>
<circle cx="150.373" cy="19.2801" r="1.42801" fill="#646464"/>
<circle cx="70.4042" cy="44.9842" r="1.42801" fill="#646464"/>
<circle cx="70.4042" cy="96.3924" r="1.42801" fill="#646464"/>
<circle cx="150.373" cy="44.9842" r="1.42801" fill="#646464"/>
<path d="M382.273 448.463L391.992 501.544L341.163 483.421L382.273 448.463Z" fill="#C4C4C4"/>
<path d="M328.17 673.103H318.533V671.76L323.624 666.103C324.379 665.247 324.897 664.553 325.18 664.021C325.47 663.483 325.614 662.927 325.614 662.355C325.614 661.587 325.382 660.957 324.917 660.465C324.453 659.974 323.833 659.728 323.059 659.728C322.129 659.728 321.405 659.994 320.887 660.526C320.375 661.051 320.119 661.785 320.119 662.728H318.25C318.25 661.375 318.684 660.28 319.553 659.445C320.429 658.61 321.597 658.192 323.059 658.192C324.426 658.192 325.507 658.553 326.301 659.273C327.096 659.987 327.493 660.94 327.493 662.132C327.493 663.58 326.571 665.304 324.725 667.305L320.786 671.578H328.17V673.103Z" fill="white"/>
</g>
<defs>
<clipPath id="clip0">
<rect width="375" height="812" fill="white"/>
</clipPath>
</defs>
</svg>
