<svg width="92" height="92" viewBox="0 0 92 92" fill="none" xmlns="http://www.w3.org/2000/svg">
<g clip-path="url(#clip0)">
<rect width="92" height="92" fill="white"/>
<g filter="url(#filter0_dd)">
<rect x="18.5741" y="29.6948" width="56.7522" height="34.5378" fill="white"/>
</g>
<g clip-path="url(#clip1)">
<path d="M39.0795 54.753L37.8322 53.8835C36.2107 52.7605 35.1879 51.0336 34.8636 48.884C34.5767 46.976 34.8262 44.754 35.612 42.3025C36.8967 38.2811 40.3892 34.6703 43.5448 34.0665C45.0167 33.7888 46.3388 34.1994 47.187 35.1896C48.6089 36.8682 48.4343 39.7665 46.6257 44.0656C44.8919 48.2077 42.7216 51.4562 40.2145 53.7386L39.0795 54.753ZM44.3306 37.6049C43.9564 37.6532 43.1083 37.9913 42.0855 38.9212C40.7883 40.0925 39.7281 41.7228 39.1918 43.3773C38.3311 46.0703 38.2688 48.2802 38.9797 49.7293C40.5513 47.9179 41.9483 45.5631 43.1582 42.701C44.5552 39.3559 44.4304 37.9913 44.3306 37.6049Z" fill="#FF7990"/>
<path d="M46.314 55.091L46.0396 53.195C45.5407 49.8258 46.6882 46.3116 49.1953 43.5462C52.064 40.3822 56.7664 38.45 59.8971 39.1505C61.3564 39.4765 62.3917 40.3701 62.7409 41.614C63.3396 43.7032 61.9551 46.2875 58.5001 49.4997C54.5212 53.195 50.006 54.3906 48.2348 54.7287L46.314 55.091ZM58.55 42.6284C58.076 42.6284 57.39 42.7129 56.5294 43.0027C54.8455 43.5583 53.1991 44.633 52.0142 45.9373C50.7669 47.3139 49.9935 48.9201 49.7441 50.5504C51.4653 49.9465 53.7978 48.8476 55.9182 46.8792C58.5999 44.3794 59.0489 43.0873 59.1238 42.6888C58.999 42.6646 58.7995 42.6284 58.55 42.6284Z" fill="#FF7990"/>
<path d="M58.6872 62.1071C58.1509 62.1071 57.627 62.095 57.1281 62.0709C54.0597 61.938 51.403 60.984 49.4198 59.3054C47.5613 57.7355 46.3888 55.6222 46.0271 53.1949C45.8774 52.2047 46.5884 51.2869 47.6112 51.1419C48.634 50.997 49.5819 51.6854 49.7316 52.6756C50.243 56.1053 53.0619 58.2669 57.2902 58.448C64.4872 58.762 75.3886 56.4796 82.6603 53.1224C83.5958 52.6877 84.7059 53.0741 85.1549 53.9798C85.604 54.8856 85.2048 55.9603 84.2694 56.3951C76.9103 59.8006 66.4454 62.1071 58.6872 62.1071Z" fill="#FF7990"/>
<path d="M43.2707 55.3809C41.0879 55.3809 39.2669 54.8858 37.82 53.8835C36.9843 53.3038 36.7847 52.1686 37.3959 51.3595C37.9946 50.5504 39.1671 50.3572 40.0028 50.9489C41.3998 51.915 43.8071 52.0358 46.9627 51.275L47.0625 51.2509L47.1748 51.2388C47.1748 51.2388 47.2995 51.2267 47.5115 51.1784C48.5219 50.9852 49.5072 51.6252 49.7068 52.6034C49.9064 53.5816 49.2453 54.5356 48.235 54.7288C48.0229 54.765 47.8733 54.7892 47.7735 54.8133C46.1395 55.1877 44.6427 55.3809 43.2707 55.3809Z" fill="#FF7990"/>
<path d="M46.314 55.091L46.0396 53.195C45.5407 49.8258 46.6882 46.3116 49.1953 43.5462C52.064 40.3822 56.7664 38.45 59.8971 39.1505C61.3564 39.4765 62.3917 40.3701 62.7409 41.614C63.3396 43.7032 61.9551 46.2875 58.5001 49.4997C54.5212 53.195 50.006 54.3906 48.2348 54.7287L46.314 55.091ZM58.55 42.6284C58.076 42.6284 57.39 42.7129 56.5294 43.0027C54.8455 43.5583 53.1991 44.633 52.0142 45.9373C50.7669 47.3139 49.9935 48.9201 49.7441 50.5504C51.4653 49.9465 53.7978 48.8476 55.9182 46.8792C58.5999 44.3794 59.0489 43.0873 59.1238 42.6888C58.999 42.6646 58.7995 42.6284 58.55 42.6284Z" fill="#FF7990"/>
<path d="M39.0795 54.753L37.8322 53.8835C36.2107 52.7605 35.1879 51.0336 34.8636 48.884C34.5767 46.976 34.8262 44.754 35.612 42.3025C36.8967 38.2811 40.3892 34.6703 43.5448 34.0665C45.0167 33.7888 46.3388 34.1994 47.187 35.1896C48.6089 36.8682 48.4343 39.7665 46.6257 44.0656C44.8919 48.2077 42.7216 51.4562 40.2145 53.7386L39.0795 54.753ZM44.3306 37.6049C43.9564 37.6532 43.1083 37.9913 42.0855 38.9212C40.7883 40.0925 39.7281 41.7228 39.1918 43.3773C38.3311 46.0703 38.2688 48.2802 38.9797 49.7293C40.5513 47.9179 41.9483 45.5631 43.1582 42.701C44.5552 39.3559 44.4304 37.9913 44.3306 37.6049Z" fill="#FF7990"/>
<path d="M39.0795 54.753L37.8322 53.8835C36.2107 52.7605 35.1879 51.0336 34.8636 48.884C34.5767 46.976 34.8262 44.754 35.612 42.3025C36.8967 38.2811 40.3892 34.6703 43.5448 34.0665C45.0167 33.7888 46.3388 34.1994 47.187 35.1896C48.6089 36.8682 48.4343 39.7665 46.6257 44.0656C44.8919 48.2077 42.7216 51.4562 40.2145 53.7386L39.0795 54.753ZM44.3306 37.6049C43.9564 37.6532 43.1083 37.9913 42.0855 38.9212C40.7883 40.0925 39.7281 41.7228 39.1918 43.3773C38.3311 46.0703 38.2688 48.2802 38.9797 49.7293C40.5513 47.9179 41.9483 45.5631 43.1582 42.701C44.5552 39.3559 44.4304 37.9913 44.3306 37.6049Z" fill="#FF7990"/>
<path d="M6.88691 57.5545C6.27573 57.5545 5.6895 57.2647 5.32778 56.7454C4.75402 55.9122 4.99101 54.7891 5.85165 54.2336C10.3669 51.3353 16.541 52.084 22.5031 52.8086C26.6192 53.3158 30.8725 53.8351 34.365 53.1226C34.4523 53.0984 35.8243 52.7361 37.6329 51.0938C38.3813 50.4054 39.5662 50.4417 40.2772 51.1783C40.9881 51.9029 40.9507 53.0501 40.1899 53.7385C39.192 55.1514 35.4751 56.6005 35.1383 56.673C31.0347 57.5062 26.4571 56.9507 22.0291 56.4073C16.4911 55.731 11.2649 55.091 7.90969 57.2526C7.59787 57.4458 7.24862 57.5545 6.88691 57.5545ZM34.4024 53.1105C34.4024 53.1105 34.3899 53.1105 34.3774 53.1105H34.4024Z" fill="#FF7990"/>
<path d="M38.9548 49.7172C38.9548 49.7172 40.4516 51.5286 42.1978 51.6493C44.3182 48.8718 48.4343 42.4715 48.1225 37.6531C46.8128 36.4334 44.7423 36.8198 44.3182 37.641C44.8172 38.3656 42.8215 45.4905 38.9548 49.7172Z" fill="url(#paint0_linear)"/>
<path d="M49.8065 50.5624C49.8065 50.5624 49.4199 51.3232 50.1682 54.1973C50.1807 54.1852 56.4172 52.8569 61.2942 46.4927C64.6494 41.2637 57.7394 45.0315 57.7394 45.0315C57.7394 45.0315 54.7957 48.751 49.8065 50.5624Z" fill="url(#paint1_linear)"/>
<path d="M36.1985 52.1929C36.1985 52.1929 37.6953 54.1371 39.2045 54.584C37.2088 56.2384 34.602 56.7577 34.602 56.7577C34.602 56.7577 31.1844 56.6248 32.3319 53.4126C32.3444 53.4609 34.3026 53.3401 36.1985 52.1929Z" fill="url(#paint2_linear)"/>
<path d="M42.2603 55.3444C43.2457 55.4168 44.7175 55.4651 46.4887 55.0666C45.9398 53.5088 45.9523 51.4921 45.9523 51.4921C43.8818 51.9268 42.4973 51.7457 42.4973 51.7457C42.4973 51.7457 41.013 53.6779 42.2603 55.3444Z" fill="url(#paint3_linear)"/>
<path d="M61.0581 23.536H85.3048V70.7538H60.8577" stroke="#202020" stroke-width="5.1763" stroke-miterlimit="10" stroke-linecap="round"/>
<path d="M31.8446 70.7538H7.5979V23.536H32.045" stroke="#202020" stroke-width="5.1763" stroke-miterlimit="10" stroke-linecap="round"/>
</g>
</g>
<defs>
<filter id="filter0_dd" x="17.7839" y="28.9046" width="59.1228" height="36.9084" filterUnits="userSpaceOnUse" color-interpolation-filters="sRGB">
<feFlood flood-opacity="0" result="BackgroundImageFix"/>
<feColorMatrix in="SourceAlpha" type="matrix" values="0 0 0 0 0 0 0 0 0 0 0 0 0 0 0 0 0 0 127 0" result="hardAlpha"/>
<feOffset dx="0.790195"/>
<feGaussianBlur stdDeviation="0.395097"/>
<feComposite in2="hardAlpha" operator="out"/>
<feColorMatrix type="matrix" values="0 0 0 0 0 0 0 0 0 0 0 0 0 0 0 0 0 0 0.15 0"/>
<feBlend mode="normal" in2="BackgroundImageFix" result="effect1_dropShadow"/>
<feColorMatrix in="SourceAlpha" type="matrix" values="0 0 0 0 0 0 0 0 0 0 0 0 0 0 0 0 0 0 127 0" result="hardAlpha"/>
<feOffset dy="0.790195"/>
<feGaussianBlur stdDeviation="0.395097"/>
<feComposite in2="hardAlpha" operator="out"/>
<feColorMatrix type="matrix" values="0 0 0 0 0 0 0 0 0 0 0 0 0 0 0 0 0 0 0.25 0"/>
<feBlend mode="normal" in2="effect1_dropShadow" result="effect2_dropShadow"/>
<feBlend mode="normal" in="SourceGraphic" in2="effect2_dropShadow" result="shape"/>
</filter>
<linearGradient id="paint0_linear" x1="37.7199" y1="47.6462" x2="49.7896" y2="40.4487" gradientUnits="userSpaceOnUse">
<stop offset="0.0541237" stop-color="#CC6279" stop-opacity="0.1"/>
<stop offset="0.2466" stop-color="#EE7188" stop-opacity="0.6794"/>
<stop offset="0.3531" stop-color="#FB778E"/>
<stop offset="0.4716" stop-color="#FF7990"/>
</linearGradient>
<linearGradient id="paint1_linear" x1="49.2064" y1="52.5821" x2="62.51" y2="44.6489" gradientUnits="userSpaceOnUse">
<stop offset="0.0541237" stop-color="#CC6279" stop-opacity="0.1"/>
<stop offset="0.3531" stop-color="#FB778E"/>
<stop offset="0.4716" stop-color="#FF7990"/>
</linearGradient>
<linearGradient id="paint2_linear" x1="33.1718" y1="56.503" x2="37.0482" y2="52.4992" gradientUnits="userSpaceOnUse">
<stop offset="0.2088" stop-color="#FB778E"/>
<stop offset="0.711" stop-color="#F9768D" stop-opacity="0.4288"/>
<stop offset="0.8916" stop-color="#F2738A" stop-opacity="0.2233"/>
<stop offset="1" stop-color="#E96F85" stop-opacity="0.1"/>
</linearGradient>
<linearGradient id="paint3_linear" x1="42.379" y1="55.4525" x2="46.0942" y2="51.6152" gradientUnits="userSpaceOnUse">
<stop offset="0.0773196" stop-color="#E96F85" stop-opacity="0.1"/>
<stop offset="0.6106" stop-color="#EB7086" stop-opacity="0.6712"/>
<stop offset="0.8025" stop-color="#F27389" stop-opacity="0.8767"/>
<stop offset="0.9175" stop-color="#FB778E"/>
</linearGradient>
<clipPath id="clip0">
<rect width="92" height="92" fill="white"/>
</clipPath>
<clipPath id="clip1">
<rect width="81.9" height="52" fill="white" transform="translate(5.40015 21)"/>
</clipPath>
</defs>
</svg>
