<?xml version="1.0" standalone="no"?>
<!DOCTYPE svg PUBLIC "-//W3C//DTD SVG 20010904//EN"
 "http://www.w3.org/TR/2001/REC-SVG-20010904/DTD/svg10.dtd">
<svg version="1.0" xmlns="http://www.w3.org/2000/svg"
 width="700.000000pt" height="700.000000pt" viewBox="0 0 700.000000 700.000000"
 preserveAspectRatio="xMidYMid meet">
<metadata>
Created by potrace 1.14, written by Peter Selinger 2001-2017
</metadata>
<g transform="translate(0.000000,700.000000) scale(0.100000,-0.100000)"
fill="#000000" stroke="none">
<path d="M410 3420 l0 -1980 1055 0 1054 0 35 30 c100 88 86 244 -29 315 l-48
30 -849 3 -848 2 0 450 c0 419 1 449 18 454 9 3 44 9 77 15 182 29 347 22 825
-35 235 -29 345 -37 540 -41 362 -7 467 13 670 132 l76 44 64 -21 c56 -19 89
-22 245 -22 99 -1 194 2 211 6 30 7 32 5 49 -38 28 -73 110 -188 183 -254 122
-113 273 -184 455 -216 110 -20 409 -22 597 -5 250 23 623 90 863 154 l87 24
0 -179 0 -178 -2155 0 c-1924 0 -2155 -2 -2155 -15 0 -9 12 -20 26 -25 28 -11
4202 -14 4241 -4 13 4 32 21 43 39 18 29 20 50 20 198 l0 166 113 36 c88 28
306 105 403 142 12 4 14 -62 14 -411 l0 -415 -857 -3 c-945 -3 -883 1 -945
-65 -76 -80 -76 -193 1 -273 l38 -40 1059 2 1059 3 3 1978 2 1977 -1035 0
c-870 0 -1040 -2 -1063 -14 -116 -60 -137 -233 -40 -323 58 -55 28 -53 938
-53 l840 0 0 -1026 0 -1025 -57 -26 c-123 -54 -432 -163 -463 -163 -7 0 -10
331 -10 949 0 522 -3 958 -7 968 -5 10 -10 -421 -13 -957 l-5 -975 -120 -33
c-413 -112 -933 -183 -1230 -169 -207 11 -349 61 -455 163 -64 61 -120 151
-98 159 7 2 47 16 88 31 199 70 415 209 586 379 252 251 331 443 245 601 -53
98 -150 144 -306 144 -333 0 -717 -262 -870 -593 -38 -82 -70 -201 -80 -293
l-7 -62 -36 -5 c-84 -14 -200 -19 -216 -10 -14 8 -9 17 33 73 121 162 270 447
336 644 84 253 79 432 -16 539 -58 66 -116 92 -209 91 -129 -1 -255 -62 -388
-188 -190 -180 -305 -415 -343 -703 -21 -161 1 -310 64 -435 l34 -66 -66 -30
c-101 -47 -172 -56 -391 -55 -142 0 -256 8 -420 27 -535 64 -593 68 -810 62
-113 -3 -222 -9 -242 -12 l-38 -6 0 1001 0 1001 863 2 864 3 40 28 c100 69
119 204 41 293 -60 69 21 64 -1133 64 l-1045 0 0 -1980z m2960 664 c0 -126
-112 -419 -242 -633 -52 -86 -149 -221 -159 -221 -20 0 -34 81 -33 185 3 230
90 441 244 596 53 53 151 119 178 119 8 0 12 -16 12 -46z m1120 -346 c0 -54
-196 -278 -329 -378 -116 -87 -352 -212 -369 -195 -10 9 46 161 81 220 66 112
198 234 323 298 106 54 294 89 294 55z"/>
</g>
</svg>
